
<svg  width="62" height="62" viewBox="0 0 184 184" fill="none" xmlns="http://www.w3.org/2000/svg">
<g transform="translate(0.000000,184.000000) scale(0.100000,-0.100000)"
fill="#000000" stroke="none">
<path d="M1195 1753 c-127 -134 -139 -152 -160 -242 l-18 -81 -146 0 c-213 -1
-361 -23 -361 -55 0 -59 621 -77 788 -24 73 24 22 52 -124 69 -42 4 -77 10
-79 12 -2 1 4 34 13 72 16 67 20 73 119 177 57 59 103 111 103 116 0 13 -34
43 -46 42 -5 -1 -45 -39 -89 -86z"/>
<path d="M1308 1335 c-28 -29 -341 -49 -551 -35 -87 5 -177 15 -199 20 -22 6
-42 9 -44 7 -3 -2 5 -102 18 -221 l22 -217 33 69 c40 84 90 132 137 132 35 0
76 -34 76 -63 0 -23 -27 -21 -40 3 -18 33 -54 25 -94 -22 -58 -67 -98 -203
-65 -224 12 -7 65 28 89 59 8 11 22 38 31 61 23 58 44 61 36 5 -10 -68 -60
-212 -76 -217 -11 -4 -13 3 -8 29 3 19 9 42 12 52 6 15 1 14 -30 -7 -21 -14
-48 -26 -61 -26 -28 0 -29 -7 -11 -170 l12 -105 36 -18 c57 -28 145 -41 279
-41 138 0 269 23 299 53 13 13 20 50 29 141 7 69 15 140 19 157 l5 33 -46 -26
c-87 -49 -115 -5 -45 71 43 46 47 65 10 46 -31 -17 -64 -67 -101 -153 -18 -43
-38 -82 -45 -88 -26 -21 -26 9 0 71 14 34 25 64 25 66 0 1 -16 -5 -35 -14 -25
-12 -38 -14 -46 -6 -8 8 -19 8 -39 0 -24 -9 -32 -8 -49 7 -13 12 -21 14 -26 6
-11 -18 -49 -28 -67 -18 -11 5 -18 20 -18 36 0 33 45 132 60 132 15 0 13 -18
-10 -77 -13 -35 -16 -54 -9 -59 15 -9 58 34 85 89 13 26 29 47 34 47 14 0 13
-8 -11 -69 -12 -34 -17 -57 -11 -63 15 -15 49 8 56 39 15 65 89 233 102 233
22 0 17 -24 -25 -128 -55 -136 -56 -142 -33 -142 30 0 69 37 82 78 15 46 27
60 35 40 5 -13 10 -13 41 3 20 10 42 15 50 12 26 -10 16 -58 -22 -101 -38 -45
-38 -50 4 -28 57 29 59 37 87 284 25 226 28 271 13 257z"/>
<path d="M630 422 c0 -4 10 -23 22 -42 19 -30 24 -59 33 -185 l10 -150 40 -20
c34 -17 60 -20 180 -20 154 0 211 13 224 48 5 12 12 85 16 161 6 124 10 144
32 179 21 34 22 38 6 33 -10 -2 -38 -11 -63 -18 -69 -19 -369 -17 -442 4 -32
9 -58 13 -58 10z"/>
</g>
</svg>
